<?xml version="1.0" encoding="utf-8"?>
<!-- Generator: Adobe Illustrator 27.0.0, SVG Export Plug-In . SVG Version: 6.00 Build 0)  -->
<svg version="1.1" id="Layer_1" xmlns="http://www.w3.org/2000/svg" xmlns:xlink="http://www.w3.org/1999/xlink" x="0px" y="0px"
	 viewBox="0 0 1000 1000" style="enable-background:new 0 0 1000 1000;" xml:space="preserve">
<style type="text/css">
	.st0{fill:none;stroke:#000000;stroke-miterlimit:10;}
</style>
<path class="st0" d="M532.9,497.2c10.1,6.1,16.8,15.6,21,26.2c5.8,14.4,7,30.9,6.2,43.4c-0.1,1.4-1.3,2.4-2.7,2.3
	c-0.2,0-0.5-0.1-0.7-0.1l-31.5-10.3c-0.7,3-1.4,6-2.1,9c-0.2,1.2-1.2,2-2.5,1.9l-8.5,0c1.6,5.7,1.7,10.4,0.2,14.7
	c-1.7,5.2-5.4,9.7-11,14.5c-1,0.8-2.3,0.8-3.3,0c-5.6-4.9-9.3-9.4-10.9-14.5c-1.4-4.4-1.3-9.1,0.3-14.5l-8.5,0
	c-1.1-0.2-2.1-0.9-2.4-2.1c-0.7-3-1.5-6-2.1-9.1L443,568.9c-0.2,0.1-0.4,0.1-0.7,0.1c-1.4,0.1-2.6-0.9-2.7-2.3
	c-0.8-12.5,0.4-29,6.2-43.4c4.3-10.6,11-20.2,21.1-26.2c-0.1-9.7,0.4-19.3,1.6-28.6c3.3-26,12.2-49.7,29.5-67.1l0.2-0.2
	c1-1,2.6-1,3.5,0c17.4,17.4,26.3,41.3,29.6,67.4C532.6,477.9,533,487.5,532.9,497.2L532.9,497.2z"/>
</svg>
