<?xml version="1.0" encoding="utf-8"?>
<!-- Generator: Adobe Illustrator 27.0.0, SVG Export Plug-In . SVG Version: 6.00 Build 0)  -->
<svg version="1.1" id="Layer_1" xmlns="http://www.w3.org/2000/svg" xmlns:xlink="http://www.w3.org/1999/xlink" x="0px" y="0px"
	 viewBox="0 0 1000 1000" style="enable-background:new 0 0 1000 1000;" xml:space="preserve">
<style type="text/css">
	.st0{fill:none;stroke:#000000;stroke-miterlimit:10;}
</style>
<path class="st0" d="M631.7,488.6c40.3,24.3,67.2,62.4,84.2,104.9c23.1,57.7,28.2,123.6,24.8,173.6c-0.4,5.5-5.2,9.7-10.7,9.3
	c-0.9-0.1-1.8-0.3-2.7-0.6l-125.9-41c-2.7,12.1-5.5,24.1-8.4,35.9c-0.9,4.6-5,8.2-9.8,7.7h-34c6.4,22.7,6.7,41.4,1,59
	c-6.7,20.7-21.4,38.7-43.8,58.1c-3.8,3.3-9.4,3.2-13.1,0c-22.4-19.4-37.1-37.5-43.8-58.2c-5.7-17.5-5.4-36.3,1-57.9h-33.9
	c-4.5-0.6-8.5-3.7-9.7-8.2c-3-12-5.8-24.2-8.6-36.5l-126,41c-0.8,0.3-1.7,0.5-2.7,0.6c-5.5,0.4-10.3-3.8-10.6-9.3
	c-3.4-50,1.7-115.9,24.8-173.6c17.1-42.6,43.9-80.7,84.3-105c-0.5-38.7,1.4-77.1,6.1-114.3c13.2-103.9,48.6-199,117.8-268.6l0.7-0.7
	c3.9-3.9,10.2-3.9,14.1,0c69.6,69.7,105.3,165.1,118.5,269.4C630.3,411.6,632.2,449.9,631.7,488.6L631.7,488.6z"/>
</svg>
