<?xml version="1.0" encoding="utf-8"?>
<!-- Generator: Adobe Illustrator 27.0.0, SVG Export Plug-In . SVG Version: 6.00 Build 0)  -->
<svg version="1.1" id="Layer_1" xmlns="http://www.w3.org/2000/svg" xmlns:xlink="http://www.w3.org/1999/xlink" x="0px" y="0px"
	 viewBox="0 0 470 470" style="enable-background:new 0 0 470 470;" xml:space="preserve">
<style type="text/css">
	.st0{fill:none;}
</style>
<g>
	<path d="M254.5,259.1L254.5,259.1c0-0.1-0.9-7.5-1.2-10c-0.2-1.2-1-2.7-2.1-3.3l-7.8-5.1v-14.9c0-3.1-0.7-6.2-2.2-8.9
		c-1.4-2.7-3.4-5-5.8-6.8c-0.3-0.2-0.7-0.2-1,0c-2.4,1.8-4.4,4.1-5.8,6.8c-1.4,2.7-2.2,5.8-2.2,8.9v14.9l-7.8,5.1
		c-1,0.7-1.9,2.1-2.1,3.3c-0.3,2.5-1.2,9.9-1.2,10c0,0.2,0,0.5,0.2,0.7s0.4,0.3,0.7,0.3h37.3c0.2,0,0.5-0.1,0.7-0.3
		C254.5,259.6,254.6,259.4,254.5,259.1z M217.3,258.3c0.2-2.1,0.8-7.1,1.1-9c0.1-0.7,0.7-1.7,1.3-2.1l6.8-4.5h1.8v-17
		c0-5.4,2.5-10.5,6.7-13.9c4.2,3.3,6.7,8.5,6.7,13.9v17h1.8l6.8,4.5c0.6,0.4,1.2,1.4,1.3,2.1c0.2,1.9,0.8,6.9,1.1,9L217.3,258.3
		L217.3,258.3z"/>
	<line class="st0" x1="230.1" y1="260.1" x2="239.9" y2="260.1"/>
	<line class="st0" x1="241.7" y1="258.3" x2="228.3" y2="258.3"/>
</g>
</svg>
