<?xml version="1.0" encoding="utf-8"?>
<!-- Generator: Adobe Illustrator 27.0.0, SVG Export Plug-In . SVG Version: 6.00 Build 0)  -->
<svg version="1.1" id="Layer_1" xmlns="http://www.w3.org/2000/svg" xmlns:xlink="http://www.w3.org/1999/xlink" x="0px" y="0px"
	 viewBox="0 0 470 470" style="enable-background:new 0 0 470 470;" xml:space="preserve">
<g>
	<path d="M402,420.9L402,420.9c-0.1-0.6-7.6-64.3-10.1-85.5c-1.3-10.4-8.9-22.7-17.7-28.5l-66.6-44V135.7c0-26.6-6.4-53-18.6-76.5
		c-11.8-22.7-28.9-42.7-49.6-57.8c-2.6-1.9-6.2-1.9-8.9,0c-20.7,15.1-37.8,35.1-49.6,57.8c-12.2,23.4-18.6,49.9-18.6,76.5v127.2
		l-66.6,44c-8.8,5.8-16.4,18.1-17.7,28.5C75.5,356.6,68,420.2,68,420.9c-0.3,2.1,0.4,4.3,1.8,5.9c1.4,1.6,3.5,2.5,5.6,2.5h319.2
		c2.1,0,4.2-0.9,5.6-2.5C401.6,425.1,402.3,423,402,420.9z M83.8,414.3c2.1-18.1,7.2-60.5,9.2-77c0.7-6,6-14.5,11.1-17.8l58.3-38.5
		h15V135.7c0-46.2,21.4-90.2,57.6-118.8c36.2,28.6,57.6,72.6,57.6,118.8v145.2h15l58.3,38.5c5.1,3.3,10.3,11.8,11.1,17.8
		c2,16.5,7,58.9,9.2,77H83.8z"/>
	<line x1="192.9" y1="429.3" x2="277.1" y2="429.3"/>
	<line x1="292.6" y1="414.3" x2="177.4" y2="414.3"/>
</g>
</svg>
